{
	"asset":{
		"generator":"Khronos glTF Blender I/O v3.6.27",
		"version":"2.0"
	},
	"scene":0,
	"scenes":[
		{
			"name":"Scene",
			"nodes":[
				0
			]
		}
	],
	"nodes":[
		{
			"mesh":0,
			"name":"board"
		}
	],
	"materials":[
		{
			"doubleSided":true,
			"name":"board",
			"normalTexture":{
				"index":0
			},
			"pbrMetallicRoughness":{
				"baseColorTexture":{
					"index":1
				},
				"metallicFactor":0,
				"metallicRoughnessTexture":{
					"index":2
				}
			}
		}
	],
	"meshes":[
		{
			"name":"board",
			"primitives":[
				{
					"attributes":{
						"POSITION":0,
						"NORMAL":1,
						"TEXCOORD_0":2
					},
					"indices":3,
					"material":0
				}
			]
		}
	],
	"textures":[
		{
			"sampler":0,
			"source":0
		},
		{
			"sampler":0,
			"source":1
		},
		{
			"sampler":0,
			"source":2
		}
	],
	"images":[
		{
			"mimeType":"image/jpeg",
			"name":"board_nor_gl",
			"uri":"textures/board_nor_gl.jpg"
		},
		{
			"mimeType":"image/jpeg",
			"name":"board_diff",
			"uri":"textures/board_diff.jpg"
		},
		{
			"mimeType":"image/jpeg",
			"name":"board_rough",
			"uri":"textures/board_rough.jpg"
		}
	],
	"accessors":[
		{
			"bufferView":0,
			"componentType":5126,
			"count":1526,
			"max":[
				2.7659716606140137,
				0.15495556592941284,
				2.7664904594421387
			],
			"min":[
				-2.766409397125244,
				-0.0185413658618927,
				-2.7658910751342773
			],
			"type":"VEC3"
		},
		{
			"bufferView":1,
			"componentType":5126,
			"count":1526,
			"type":"VEC3"
		},
		{
			"bufferView":2,
			"componentType":5126,
			"count":1526,
			"type":"VEC2"
		},
		{
			"bufferView":3,
			"componentType":5123,
			"count":6624,
			"type":"SCALAR"
		}
	],
	"bufferViews":[
		{
			"buffer":0,
			"byteLength":18312,
			"byteOffset":0,
			"target":34962
		},
		{
			"buffer":0,
			"byteLength":18312,
			"byteOffset":18312,
			"target":34962
		},
		{
			"buffer":0,
			"byteLength":12208,
			"byteOffset":36624,
			"target":34962
		},
		{
			"buffer":0,
			"byteLength":13248,
			"byteOffset":48832,
			"target":34963
		}
	],
	"samplers":[
		{
			"magFilter":9729,
			"minFilter":9987
		}
	],
	"buffers":[
		{
			"byteLength":62080,
			"uri":"board.bin"
		}
	]
}
