{
	"asset":{
		"generator":"Khronos glTF Blender I/O v3.6.27",
		"version":"2.0"
	},
	"extensionsUsed":[
		"KHR_materials_variants"
	],
	"extensionsRequired":[
		"KHR_materials_variants"
	],
	"extensions":{
		"KHR_materials_variants":{
			"variants":[
				{
					"name":"white"
				},
				{
					"name":"black"
				}
			]
		}
	},
	"scene":0,
	"scenes":[
		{
			"name":"Scene",
			"nodes":[
				0
			]
		}
	],
	"nodes":[
		{
			"mesh":0,
			"name":"king"
		}
	],
	"materials":[
		{
			"doubleSided":true,
			"name":"white",
			"normalTexture":{
				"index":0
			},
			"pbrMetallicRoughness":{
				"baseColorTexture":{
					"index":1
				},
				"metallicFactor":0,
				"metallicRoughnessTexture":{
					"index":2
				}
			}
		},
		{
			"doubleSided":true,
			"name":"black",
			"normalTexture":{
				"index":3
			},
			"pbrMetallicRoughness":{
				"baseColorTexture":{
					"index":4
				},
				"metallicFactor":0,
				"metallicRoughnessTexture":{
					"index":5
				}
			}
		}
	],
	"meshes":[
		{
			"name":"king",
			"primitives":[
				{
					"attributes":{
						"POSITION":0,
						"NORMAL":1,
						"TEXCOORD_0":2
					},
					"extensions":{
						"KHR_materials_variants":{
							"mappings":[
								{
									"material":0,
									"variants":[
										0
									]
								},
								{
									"material":1,
									"variants":[
										1
									]
								}
							]
						}
					},
					"indices":3,
					"material":0
				}
			]
		}
	],
	"textures":[
		{
			"sampler":0,
			"source":0
		},
		{
			"sampler":0,
			"source":1
		},
		{
			"sampler":0,
			"source":2
		},
		{
			"sampler":0,
			"source":3
		},
		{
			"sampler":0,
			"source":4
		},
		{
			"sampler":0,
			"source":5
		}
	],
	"images":[
		{
			"mimeType":"image/jpeg",
			"name":"white_nor_gl",
			"uri":"textures/white_nor_gl.jpg"
		},
		{
			"mimeType":"image/jpeg",
			"name":"white_diff",
			"uri":"textures/white_diff.jpg"
		},
		{
			"mimeType":"image/jpeg",
			"name":"white_rough",
			"uri":"textures/white_rough.jpg"
		},
		{
			"mimeType":"image/jpeg",
			"name":"black_nor_gl",
			"uri":"textures/black_nor_gl.jpg"
		},
		{
			"mimeType":"image/jpeg",
			"name":"black_diff",
			"uri":"textures/black_diff.jpg"
		},
		{
			"mimeType":"image/jpeg",
			"name":"black_rough",
			"uri":"textures/black_rough.jpg"
		}
	],
	"accessors":[
		{
			"bufferView":0,
			"componentType":5126,
			"count":2643,
			"max":[
				0.20756684243679047,
				0.9493029713630676,
				0.20638582110404968
			],
			"min":[
				-0.20770470798015594,
				-0.000728905200958252,
				-0.21081534028053284
			],
			"type":"VEC3"
		},
		{
			"bufferView":1,
			"componentType":5126,
			"count":2643,
			"type":"VEC3"
		},
		{
			"bufferView":2,
			"componentType":5126,
			"count":2643,
			"type":"VEC2"
		},
		{
			"bufferView":3,
			"componentType":5123,
			"count":12516,
			"type":"SCALAR"
		}
	],
	"bufferViews":[
		{
			"buffer":0,
			"byteLength":31716,
			"byteOffset":0,
			"target":34962
		},
		{
			"buffer":0,
			"byteLength":31716,
			"byteOffset":31716,
			"target":34962
		},
		{
			"buffer":0,
			"byteLength":21144,
			"byteOffset":63432,
			"target":34962
		},
		{
			"buffer":0,
			"byteLength":25032,
			"byteOffset":84576,
			"target":34963
		}
	],
	"samplers":[
		{
			"magFilter":9729,
			"minFilter":9987
		}
	],
	"buffers":[
		{
			"byteLength":109608,
			"uri":"king.bin"
		}
	]
}
